<svg xmlns="http://www.w3.org/2000/svg" version="1.1" xmlns:xlink="http://www.w3.org/1999/xlink" width="512" height="512" x="0" y="0" viewBox="0 0 24 24" style="enable-background:new 0 0 512 512" xml:space="preserve" class=""><g><circle cx="12" cy="12" r="12" fill="#2f80ed" opacity="0" data-original="#2f80ed" class=""></circle><path fill="#ffffff" d="M16.7 8c-1.8 0-3 1.3-3.4 1.7l1.1 1.1c.3-.3 1.2-1.2 2.3-1.2 1 0 2.5.7 2.5 2.4s-1.4 2.4-2.5 2.4c-1.8 0-2.6-1.1-4-2.7l-.2-.3C11 9.5 9.8 8 7.3 8c-2 0-4.1 1.5-4.1 4s2.1 4 4.1 4c1.8 0 2.7-.9 3.4-1.7.3-.3.3-.8 0-1.1s-.8-.3-1.1 0c-.6.6-1.2 1.2-2.3 1.2-1 0-2.5-.7-2.5-2.4s1.4-2.4 2.5-2.4c1.8 0 2.6 1.1 4 2.7l.2.3c1.4 1.8 2.7 3.4 5.2 3.4 2 0 4.1-1.5 4.1-4s-2.1-4-4.1-4z" opacity="1" data-original="#ffffff" class=""></path></g></svg>